<svg height="512" viewBox="0 0 512.729 512.729" width="512" xmlns="http://www.w3.org/2000/svg" fill="#983be0"><path d="M166.825 269.339h-15v-15c0-8.284-6.716-15-15-15s-15 6.716-15 15v15h-15c-8.284 0-15 6.716-15 15s6.716 15 15 15h15v15c0 8.284 6.716 15 15 15s15-6.716 15-15v-15h15c8.284 0 15-6.716 15-15s-6.716-15-15-15zm45 45c0 8.284 6.716 15 15 15h60c8.284 0 15-6.716 15-15s-6.716-15-15-15h-60c-8.284 0-15 6.715-15 15z"/><circle cx="376.825" cy="254.339" r="15"/><circle cx="376.825" cy="314.339" r="15"/><circle cx="406.825" cy="284.339" r="15"/><circle cx="346.825" cy="284.339" r="15"/><path d="M216.448 234.485c-9.552-22.752-27.537-54.175-73.116-54.175C38.237 180.31.922 392.532.922 435.439c0 56.8 31.873 76.953 59.167 76.953 48.004 0 99.636-82.067 124.543-123.054H329.02c24.708 40.66 76.954 122.932 123.518 123.043 31.047.617 60.191-23.354 60.191-76.942 0-18.038-28.12-255.129-142.41-255.129-45.578 0-63.564 31.422-73.116 54.174-4.99-10.107-13.667-18.078-24.261-22.156.477-7.871.78-18.4.183-29.876-3.656-70.308-38.916-111.392-138.983-92.872-83.97 15.268-115.05-21.426-100.931-69.97C35.562 11.698 31.076 3.367 23.167.979 15.235-1.415 6.865 3.073 4.472 11.004-14.58 74.1 26.654 139.607 139.543 119.091c87.289-15.995 108.221 15.744 103.41 92.438-11.612 3.772-21.167 12.143-26.505 22.956zm70.377 34.854c3.988-.001 17.142.003 18.724-.004 10.84-.066 13.652-8.858 15.916-14.708 9.722-25.109 19.491-44.316 48.854-44.316 76.369 0 111.926 186.457 112.41 225.129 0 25.137-5.259 43.176-30.089 46.942-7.787 0-38.176-8.346-102.263-115.73a15.003 15.003 0 00-12.881-7.313H176.154a14.998 14.998 0 00-12.88 7.313c-21.709 36.375-65.798 107.75-103.186 115.741-8.77 0-29.167-4.575-29.167-46.928.348-27.835 32.209-225.155 112.411-225.155 29.362 0 39.132 19.207 48.854 44.317 3.152 8.142 5.831 14.652 15.922 14.707.025 0 .05.004.075.004h18.642c8.284 0 15-6.716 15-15 0-8.267 6.722-14.992 14.987-14.999l.032.001h.008c8.259.015 14.973 6.737 14.973 14.999 0 8.284 6.716 15 15 15z"/></svg>