<svg version="1.1" id="Capa_1" xmlns="http://www.w3.org/2000/svg" x="0" y="0" viewBox="0 0 512 512" xml:space="preserve"><path d="M256 0C131.935 0 31 100.935 31 225v122c0 24.813 20.187 45 45 45h17.58c6.192 17.458 22.865 30 42.42 30 24.813 0 45-20.187 45-45V255c0-24.813-20.187-45-45-45-19.555 0-36.228 12.542-42.42 30H76c-5.259 0-10.305.915-15 2.58V225c0-107.523 87.477-195 195-195s195 87.477 195 195v17.58a44.785 44.785 0 00-15-2.58h-17.58c-6.192-17.458-22.865-30-42.42-30-24.813 0-45 20.187-45 45v122c0 24.813 20.187 45 45 45 4.541 0 8.925-.682 13.061-1.939C383.45 438.523 366.272 452 346 452h-47.58c-6.192-17.458-22.865-30-42.42-30-24.813 0-45 20.187-45 45s20.187 45 45 45c19.555 0 36.228-12.542 42.42-30H346c41.355 0 75-33.645 75-75v-15h15c24.813 0 45-20.187 45-45V225C481 100.935 380.065 0 256 0zM121 255c0-8.271 6.729-15 15-15s15 6.729 15 15v122c0 8.271-6.729 15-15 15s-15-6.729-15-15V255zm-45 15h15v92H76c-8.271 0-15-6.729-15-15v-62c0-8.271 6.729-15 15-15zm180 212c-8.271 0-15-6.729-15-15s6.729-15 15-15 15 6.729 15 15-6.729 15-15 15zm135-105c0 8.271-6.729 15-15 15s-15-6.729-15-15V255c0-8.271 6.729-15 15-15s15 6.729 15 15v122zm60-30c0 8.271-6.729 15-15 15h-15v-92h15c8.271 0 15 6.729 15 15v62z"/></svg>