<svg version="1.1" id="Capa_1" xmlns="http://www.w3.org/2000/svg" x="0" y="0" viewBox="0 0 512.004 512.004" xml:space="preserve"><path d="M509.476 187.484L425.816 53.07a16.737 16.737 0 00-14.206-7.892H100.395a16.739 16.739 0 00-14.206 7.892L2.529 187.484a16.729 16.729 0 002.03 20.324l239.268 253.763a16.727 16.727 0 0024.35-.005l239.268-253.758a16.737 16.737 0 002.031-20.324zm-253.473 238.22L37.75 194.227l71.942-115.585h292.626l71.937 115.585-218.252 231.477z"/><path d="M16.735 179.592h478.536v33.464H16.735z"/><path d="M171.874 194.724l25.801-129.545-32.823-6.537-26.771 134.414a16.75 16.75 0 00.876 9.482l101.508 253.769 31.071-12.426-99.662-249.157z"/><path d="M374.99 191.712l-27.887-130.51-32.722 6.994 26.821 125.507-100.715 250.144 31.038 12.493 102.629-254.879a16.808 16.808 0 00.836-9.749z"/></svg>